<?xml version="1.0" standalone="no"?>
<!DOCTYPE svg PUBLIC "-//W3C//DTD SVG 20010904//EN"
 "http://www.w3.org/TR/2001/REC-SVG-20010904/DTD/svg10.dtd">
<svg version="1.0" xmlns="http://www.w3.org/2000/svg"
 width="512.000000pt" height="512.000000pt" viewBox="0 0 512.000000 512.000000"
 preserveAspectRatio="xMidYMid meet">

<g transform="translate(0.000000,512.000000) scale(0.100000,-0.100000)"
fill="#000000" stroke="none">
<path d="M2410 4769 c-487 -62 -888 -420 -1011 -901 -18 -71 -23 -123 -28
-353 l-6 -270 -215 -5 c-256 -6 -285 -14 -374 -111 -98 -106 -91 -6 -91 -1259
l0 -1095 26 -56 c37 -79 90 -133 167 -171 l67 -33 1615 0 1615 0 67 33 c77 38
130 92 167 171 l26 56 0 1095 c0 1253 7 1153 -91 1259 -89 97 -118 105 -374
111 l-215 5 -6 270 c-5 249 -8 277 -32 366 -160 588 -714 964 -1307 888z m355
-358 c313 -76 564 -336 629 -653 12 -57 16 -136 16 -298 l0 -220 -850 0 -850
0 0 220 c0 162 4 241 16 298 66 322 328 589 644 656 41 8 89 17 105 20 57 8
210 -4 290 -23z m-1090 -2225 c107 -49 186 -155 200 -270 13 -102 -45 -245
-123 -303 -77 -57 -112 -68 -217 -68 -115 0 -158 16 -233 89 -73 69 -104 146
-103 252 2 241 256 401 476 300z m1028 0 c64 -31 140 -108 170 -174 17 -37 22
-66 22 -137 0 -84 -2 -95 -34 -153 -69 -126 -174 -186 -316 -180 -97 4 -159
31 -225 98 -72 72 -95 128 -95 235 0 114 24 172 101 245 80 76 149 102 256 95
44 -2 85 -12 121 -29z m1025 -1 c115 -53 192 -172 193 -299 1 -106 -30 -183
-103 -252 -75 -73 -118 -89 -233 -89 -89 0 -105 3 -150 27 -97 52 -154 124
-181 227 -69 273 215 504 474 386z"/>
</g>
</svg>
