<?xml version="1.0" standalone="no"?>
<!DOCTYPE svg PUBLIC "-//W3C//DTD SVG 20010904//EN"
 "http://www.w3.org/TR/2001/REC-SVG-20010904/DTD/svg10.dtd">
<svg version="1.0" xmlns="http://www.w3.org/2000/svg"
 width="512.000000pt" height="512.000000pt" viewBox="0 0 512.000000 512.000000"
 preserveAspectRatio="xMidYMid meet">

<g transform="translate(0.000000,512.000000) scale(0.100000,-0.100000)"
fill="#000000" stroke="none">
<path d="M2304 4795 c-277 -31 -552 -117 -813 -256 -365 -195 -715 -545 -910
-910 -219 -412 -305 -851 -256 -1311 55 -522 286 -994 666 -1364 376 -365 820
-575 1327 -629 460 -49 899 37 1311 256 365 195 715 545 910 910 219 412 305
851 256 1311 -31 292 -114 560 -256 827 -195 365 -545 715 -910 910 -413 220
-861 306 -1325 256z m463 -1114 c147 -42 245 -98 354 -203 244 -235 312 -600
170 -912 -82 -181 -251 -342 -429 -410 -244 -93 -527 -68 -733 66 -333 215
-461 629 -309 999 101 244 337 429 612 478 80 15 252 5 335 -18z m-562 -1774
c150 -61 204 -72 355 -72 152 0 208 12 355 73 83 34 98 37 185 37 l95 0 103
-54 c176 -91 324 -208 459 -361 77 -87 193 -253 193 -276 0 -41 -256 -264
-405 -354 -189 -114 -334 -174 -540 -225 -303 -75 -587 -75 -890 0 -206 51
-351 111 -540 225 -149 90 -405 313 -405 354 0 23 116 189 193 276 132 150
283 270 448 355 116 60 135 65 229 61 59 -2 95 -11 165 -39z"/>
</g>
</svg>
